<mxfile host="app.diagrams.net" modified="2024-04-02T07:33:37.450Z" agent="Mozilla/5.0 (Windows NT 10.0; Win64; x64) AppleWebKit/537.36 (KHTML, like Gecko) Chrome/123.0.0.0 Safari/537.36" etag="f734c2vdQt7y8V8u5Ul5" version="24.2.1" type="device" pages="5">
  <diagram name="BFD Mức 1" id="qs6rBLlf0poWx1rhJ2QM">
    <mxGraphModel dx="4650" dy="1322" grid="1" gridSize="10" guides="1" tooltips="1" connect="1" arrows="1" fold="1" page="0" pageScale="1" pageWidth="827" pageHeight="1169" math="0" shadow="0">
      <root>
        <mxCell id="0" />
        <mxCell id="1" parent="0" />
        <mxCell id="9XURLxPAlvc49eeGpLmr-51" style="edgeStyle=orthogonalEdgeStyle;rounded=0;orthogonalLoop=1;jettySize=auto;html=1;" parent="1" source="zaJx_u0mcwWEpF8p9S2t-1" target="9XURLxPAlvc49eeGpLmr-23" edge="1">
          <mxGeometry relative="1" as="geometry" />
        </mxCell>
        <mxCell id="9XURLxPAlvc49eeGpLmr-52" style="edgeStyle=orthogonalEdgeStyle;rounded=0;orthogonalLoop=1;jettySize=auto;html=1;" parent="1" source="zaJx_u0mcwWEpF8p9S2t-1" target="zaJx_u0mcwWEpF8p9S2t-14" edge="1">
          <mxGeometry relative="1" as="geometry">
            <Array as="points">
              <mxPoint x="-2860" y="-630" />
              <mxPoint x="-2720" y="-630" />
            </Array>
          </mxGeometry>
        </mxCell>
        <mxCell id="9XURLxPAlvc49eeGpLmr-53" style="edgeStyle=orthogonalEdgeStyle;rounded=0;orthogonalLoop=1;jettySize=auto;html=1;" parent="1" source="zaJx_u0mcwWEpF8p9S2t-1" target="zaJx_u0mcwWEpF8p9S2t-16" edge="1">
          <mxGeometry relative="1" as="geometry">
            <Array as="points">
              <mxPoint x="-2860" y="-630" />
              <mxPoint x="-2580" y="-630" />
            </Array>
          </mxGeometry>
        </mxCell>
        <mxCell id="9XURLxPAlvc49eeGpLmr-54" style="edgeStyle=orthogonalEdgeStyle;rounded=0;orthogonalLoop=1;jettySize=auto;html=1;" parent="1" source="zaJx_u0mcwWEpF8p9S2t-1" target="zaJx_u0mcwWEpF8p9S2t-18" edge="1">
          <mxGeometry relative="1" as="geometry">
            <Array as="points">
              <mxPoint x="-2860" y="-630" />
              <mxPoint x="-2440" y="-630" />
            </Array>
          </mxGeometry>
        </mxCell>
        <mxCell id="9XURLxPAlvc49eeGpLmr-55" style="edgeStyle=orthogonalEdgeStyle;rounded=0;orthogonalLoop=1;jettySize=auto;html=1;" parent="1" source="zaJx_u0mcwWEpF8p9S2t-1" target="zaJx_u0mcwWEpF8p9S2t-9" edge="1">
          <mxGeometry relative="1" as="geometry">
            <Array as="points">
              <mxPoint x="-2860" y="-630" />
              <mxPoint x="-3000" y="-630" />
            </Array>
          </mxGeometry>
        </mxCell>
        <mxCell id="9XURLxPAlvc49eeGpLmr-56" style="edgeStyle=orthogonalEdgeStyle;rounded=0;orthogonalLoop=1;jettySize=auto;html=1;" parent="1" source="zaJx_u0mcwWEpF8p9S2t-1" target="zaJx_u0mcwWEpF8p9S2t-7" edge="1">
          <mxGeometry relative="1" as="geometry">
            <Array as="points">
              <mxPoint x="-2860" y="-630" />
              <mxPoint x="-3140" y="-630" />
            </Array>
          </mxGeometry>
        </mxCell>
        <mxCell id="9XURLxPAlvc49eeGpLmr-57" style="edgeStyle=orthogonalEdgeStyle;rounded=0;orthogonalLoop=1;jettySize=auto;html=1;" parent="1" source="zaJx_u0mcwWEpF8p9S2t-1" target="zaJx_u0mcwWEpF8p9S2t-2" edge="1">
          <mxGeometry relative="1" as="geometry">
            <Array as="points">
              <mxPoint x="-2860" y="-630" />
              <mxPoint x="-3280" y="-630" />
            </Array>
          </mxGeometry>
        </mxCell>
        <mxCell id="zaJx_u0mcwWEpF8p9S2t-1" value="Cửa hàng tiện lợi - Mini Store" style="rounded=0;whiteSpace=wrap;html=1;" parent="1" vertex="1">
          <mxGeometry x="-2960" y="-710" width="200" height="60" as="geometry" />
        </mxCell>
        <mxCell id="zaJx_u0mcwWEpF8p9S2t-2" value="Quản lý bán hàng" style="rounded=0;whiteSpace=wrap;html=1;" parent="1" vertex="1">
          <mxGeometry x="-3340" y="-580" width="120" height="60" as="geometry" />
        </mxCell>
        <mxCell id="zaJx_u0mcwWEpF8p9S2t-7" value="Quản lý hóa đơn" style="whiteSpace=wrap;html=1;rounded=0;" parent="1" vertex="1">
          <mxGeometry x="-3200" y="-580" width="120" height="60" as="geometry" />
        </mxCell>
        <mxCell id="zaJx_u0mcwWEpF8p9S2t-9" value="Quản lý nhân viên" style="whiteSpace=wrap;html=1;rounded=0;" parent="1" vertex="1">
          <mxGeometry x="-3060" y="-580" width="120" height="60" as="geometry" />
        </mxCell>
        <mxCell id="zaJx_u0mcwWEpF8p9S2t-14" value="Quản lý mặt hàng" style="whiteSpace=wrap;html=1;rounded=0;" parent="1" vertex="1">
          <mxGeometry x="-2780" y="-580" width="120" height="60" as="geometry" />
        </mxCell>
        <mxCell id="zaJx_u0mcwWEpF8p9S2t-16" value="Quản lý nhập hàng" style="whiteSpace=wrap;html=1;rounded=0;" parent="1" vertex="1">
          <mxGeometry x="-2640" y="-580" width="120" height="60" as="geometry" />
        </mxCell>
        <mxCell id="zaJx_u0mcwWEpF8p9S2t-18" value="Quản lý phiếu nhập" style="whiteSpace=wrap;html=1;rounded=0;" parent="1" vertex="1">
          <mxGeometry x="-2500" y="-580" width="120" height="60" as="geometry" />
        </mxCell>
        <mxCell id="9XURLxPAlvc49eeGpLmr-23" value="Quản lý khách hàng" style="whiteSpace=wrap;html=1;rounded=0;" parent="1" vertex="1">
          <mxGeometry x="-2920" y="-580" width="120" height="60" as="geometry" />
        </mxCell>
      </root>
    </mxGraphModel>
  </diagram>
  <diagram id="ByYMlV3hnD-0s2xM5KQr" name="BFD Mức 2">
    <mxGraphModel dx="5135" dy="1666" grid="1" gridSize="10" guides="1" tooltips="1" connect="1" arrows="1" fold="1" page="1" pageScale="1" pageWidth="827" pageHeight="1169" math="0" shadow="0">
      <root>
        <mxCell id="0" />
        <mxCell id="1" parent="0" />
        <mxCell id="Q_odpXwVn9oltR_Ve3df-1" style="edgeStyle=orthogonalEdgeStyle;rounded=0;orthogonalLoop=1;jettySize=auto;html=1;" parent="1" source="Q_odpXwVn9oltR_Ve3df-8" target="Q_odpXwVn9oltR_Ve3df-48" edge="1">
          <mxGeometry relative="1" as="geometry" />
        </mxCell>
        <mxCell id="Q_odpXwVn9oltR_Ve3df-2" style="edgeStyle=orthogonalEdgeStyle;rounded=0;orthogonalLoop=1;jettySize=auto;html=1;" parent="1" source="Q_odpXwVn9oltR_Ve3df-8" target="Q_odpXwVn9oltR_Ve3df-12" edge="1">
          <mxGeometry relative="1" as="geometry">
            <Array as="points">
              <mxPoint x="-3480" y="-1040" />
              <mxPoint x="-3330" y="-1040" />
            </Array>
          </mxGeometry>
        </mxCell>
        <mxCell id="Q_odpXwVn9oltR_Ve3df-3" style="edgeStyle=orthogonalEdgeStyle;rounded=0;orthogonalLoop=1;jettySize=auto;html=1;" parent="1" source="Q_odpXwVn9oltR_Ve3df-8" target="Q_odpXwVn9oltR_Ve3df-13" edge="1">
          <mxGeometry relative="1" as="geometry">
            <Array as="points">
              <mxPoint x="-3480" y="-1040" />
              <mxPoint x="-3190" y="-1040" />
            </Array>
          </mxGeometry>
        </mxCell>
        <mxCell id="Q_odpXwVn9oltR_Ve3df-4" style="edgeStyle=orthogonalEdgeStyle;rounded=0;orthogonalLoop=1;jettySize=auto;html=1;" parent="1" source="Q_odpXwVn9oltR_Ve3df-8" target="Q_odpXwVn9oltR_Ve3df-14" edge="1">
          <mxGeometry relative="1" as="geometry">
            <Array as="points">
              <mxPoint x="-3480" y="-1040" />
              <mxPoint x="-3040" y="-1040" />
            </Array>
          </mxGeometry>
        </mxCell>
        <mxCell id="Q_odpXwVn9oltR_Ve3df-5" style="edgeStyle=orthogonalEdgeStyle;rounded=0;orthogonalLoop=1;jettySize=auto;html=1;" parent="1" source="Q_odpXwVn9oltR_Ve3df-8" target="Q_odpXwVn9oltR_Ve3df-11" edge="1">
          <mxGeometry relative="1" as="geometry">
            <Array as="points">
              <mxPoint x="-3480" y="-1040" />
              <mxPoint x="-3630" y="-1040" />
            </Array>
          </mxGeometry>
        </mxCell>
        <mxCell id="Q_odpXwVn9oltR_Ve3df-6" style="edgeStyle=orthogonalEdgeStyle;rounded=0;orthogonalLoop=1;jettySize=auto;html=1;" parent="1" source="Q_odpXwVn9oltR_Ve3df-8" target="Q_odpXwVn9oltR_Ve3df-10" edge="1">
          <mxGeometry relative="1" as="geometry">
            <Array as="points">
              <mxPoint x="-3480" y="-1040" />
              <mxPoint x="-3770" y="-1040" />
            </Array>
          </mxGeometry>
        </mxCell>
        <mxCell id="Q_odpXwVn9oltR_Ve3df-7" style="edgeStyle=orthogonalEdgeStyle;rounded=0;orthogonalLoop=1;jettySize=auto;html=1;" parent="1" source="Q_odpXwVn9oltR_Ve3df-8" target="Q_odpXwVn9oltR_Ve3df-9" edge="1">
          <mxGeometry relative="1" as="geometry">
            <Array as="points">
              <mxPoint x="-3480" y="-1040" />
              <mxPoint x="-3910" y="-1040" />
            </Array>
          </mxGeometry>
        </mxCell>
        <mxCell id="Q_odpXwVn9oltR_Ve3df-8" value="Cửa hàng tiện lợi - Mini Store" style="rounded=0;whiteSpace=wrap;html=1;" parent="1" vertex="1">
          <mxGeometry x="-3580" y="-1120" width="200" height="60" as="geometry" />
        </mxCell>
        <mxCell id="Q_odpXwVn9oltR_Ve3df-9" value="1. Quản lý bán hàng" style="rounded=0;whiteSpace=wrap;html=1;" parent="1" vertex="1">
          <mxGeometry x="-3970" y="-1000" width="120" height="40" as="geometry" />
        </mxCell>
        <mxCell id="Q_odpXwVn9oltR_Ve3df-10" value="2. Quản lý hóa đơn" style="whiteSpace=wrap;html=1;rounded=0;" parent="1" vertex="1">
          <mxGeometry x="-3831" y="-1000" width="120" height="40" as="geometry" />
        </mxCell>
        <mxCell id="Q_odpXwVn9oltR_Ve3df-11" value="3. Quản lý nhân viên" style="whiteSpace=wrap;html=1;rounded=0;" parent="1" vertex="1">
          <mxGeometry x="-3690" y="-1000" width="120" height="40" as="geometry" />
        </mxCell>
        <mxCell id="Q_odpXwVn9oltR_Ve3df-12" value="5. Quản lý mặt hàng" style="whiteSpace=wrap;html=1;rounded=0;" parent="1" vertex="1">
          <mxGeometry x="-3390" y="-1000" width="120" height="40" as="geometry" />
        </mxCell>
        <mxCell id="Q_odpXwVn9oltR_Ve3df-13" value="6. Quản lý nhập hàng" style="whiteSpace=wrap;html=1;rounded=0;" parent="1" vertex="1">
          <mxGeometry x="-3250" y="-1000" width="120" height="40" as="geometry" />
        </mxCell>
        <mxCell id="Q_odpXwVn9oltR_Ve3df-14" value="7. Quản lý phiếu nhập" style="whiteSpace=wrap;html=1;rounded=0;" parent="1" vertex="1">
          <mxGeometry x="-3110" y="-1000" width="140" height="40" as="geometry" />
        </mxCell>
        <mxCell id="Q_odpXwVn9oltR_Ve3df-15" value="1.1. Tìm kiếm sản phẩm" style="whiteSpace=wrap;html=1;rounded=0;" parent="1" vertex="1">
          <mxGeometry x="-3951" y="-940" width="120" height="40" as="geometry" />
        </mxCell>
        <mxCell id="Q_odpXwVn9oltR_Ve3df-16" value="1.3. Lập/Huỷ hóa đơn" style="whiteSpace=wrap;html=1;rounded=0;" parent="1" vertex="1">
          <mxGeometry x="-3951" y="-799" width="120" height="40" as="geometry" />
        </mxCell>
        <mxCell id="Q_odpXwVn9oltR_Ve3df-17" value="1.2. Tăng/Giảm số lượng sản phẩm trong giỏ hàng" style="whiteSpace=wrap;html=1;rounded=0;" parent="1" vertex="1">
          <mxGeometry x="-3951" y="-879" width="120" height="60" as="geometry" />
        </mxCell>
        <mxCell id="Q_odpXwVn9oltR_Ve3df-18" value="2.2. Chi tiết hoá đơn" style="whiteSpace=wrap;html=1;rounded=0;" parent="1" vertex="1">
          <mxGeometry x="-3810" y="-839" width="120" height="40" as="geometry" />
        </mxCell>
        <mxCell id="Q_odpXwVn9oltR_Ve3df-19" value="2.1.&amp;nbsp; Tìm kiếm hóa đơn dựa theo mã nhân viên/mã khách hàng/mã hoá đơn" style="whiteSpace=wrap;html=1;rounded=0;" parent="1" vertex="1">
          <mxGeometry x="-3810" y="-939" width="120" height="80" as="geometry" />
        </mxCell>
        <mxCell id="Q_odpXwVn9oltR_Ve3df-20" value="3.1. Thêm nhân viên" style="whiteSpace=wrap;html=1;rounded=0;" parent="1" vertex="1">
          <mxGeometry x="-3670" y="-939" width="120" height="39" as="geometry" />
        </mxCell>
        <mxCell id="Q_odpXwVn9oltR_Ve3df-21" value="3.4. Tìm hoá đơn mà nhân viên đã bán" style="whiteSpace=wrap;html=1;rounded=0;" parent="1" vertex="1">
          <mxGeometry x="-3670" y="-759" width="120" height="40" as="geometry" />
        </mxCell>
        <mxCell id="Q_odpXwVn9oltR_Ve3df-22" value="3.5. Tìm kiếm nhân viên" style="whiteSpace=wrap;html=1;rounded=0;" parent="1" vertex="1">
          <mxGeometry x="-3670" y="-699" width="120" height="40" as="geometry" />
        </mxCell>
        <mxCell id="Q_odpXwVn9oltR_Ve3df-23" value="3.6. Xem chi tiết hóa đơn" style="whiteSpace=wrap;html=1;rounded=0;" parent="1" vertex="1">
          <mxGeometry x="-3670" y="-639" width="120" height="40" as="geometry" />
        </mxCell>
        <mxCell id="Q_odpXwVn9oltR_Ve3df-24" value="3.3. Xóa nhân viên" style="whiteSpace=wrap;html=1;rounded=0;" parent="1" vertex="1">
          <mxGeometry x="-3670" y="-819" width="120" height="40" as="geometry" />
        </mxCell>
        <mxCell id="Q_odpXwVn9oltR_Ve3df-25" value="3.2. Sửa nhân viên" style="whiteSpace=wrap;html=1;rounded=0;" parent="1" vertex="1">
          <mxGeometry x="-3670" y="-879" width="120" height="39" as="geometry" />
        </mxCell>
        <mxCell id="Q_odpXwVn9oltR_Ve3df-26" value="Kiểm tra tồn kho" style="whiteSpace=wrap;html=1;rounded=0;" parent="1" vertex="1">
          <mxGeometry x="-3340" y="-939" width="120" height="40" as="geometry" />
        </mxCell>
        <mxCell id="Q_odpXwVn9oltR_Ve3df-27" value="Thêm sản phẩm mới" style="whiteSpace=wrap;html=1;rounded=0;" parent="1" vertex="1">
          <mxGeometry x="-3340" y="-864" width="120" height="40" as="geometry" />
        </mxCell>
        <mxCell id="Q_odpXwVn9oltR_Ve3df-28" value="Xoá sản phẩm" style="whiteSpace=wrap;html=1;rounded=0;" parent="1" vertex="1">
          <mxGeometry x="-3340" y="-699" width="120" height="40" as="geometry" />
        </mxCell>
        <mxCell id="Q_odpXwVn9oltR_Ve3df-29" value="Sửa thông tin sản phẩm" style="whiteSpace=wrap;html=1;rounded=0;" parent="1" vertex="1">
          <mxGeometry x="-3340" y="-789" width="120" height="50" as="geometry" />
        </mxCell>
        <mxCell id="Q_odpXwVn9oltR_Ve3df-30" value="Xoá mặt hàng nhập" style="whiteSpace=wrap;html=1;rounded=0;" parent="1" vertex="1">
          <mxGeometry x="-3200" y="-819.5" width="120" height="40" as="geometry" />
        </mxCell>
        <mxCell id="Q_odpXwVn9oltR_Ve3df-31" value="Xác nhận/Huỷ đơn nhập hàng" style="whiteSpace=wrap;html=1;rounded=0;" parent="1" vertex="1">
          <mxGeometry x="-3200" y="-739.5" width="120" height="60" as="geometry" />
        </mxCell>
        <mxCell id="Q_odpXwVn9oltR_Ve3df-32" value="Điều chỉnh số lượng hàng cần nhập" style="whiteSpace=wrap;html=1;rounded=0;" parent="1" vertex="1">
          <mxGeometry x="-3200" y="-919.5" width="120" height="60" as="geometry" />
        </mxCell>
        <mxCell id="Q_odpXwVn9oltR_Ve3df-33" value="Tìm kiếm phiếu nhập" style="whiteSpace=wrap;html=1;rounded=0;" parent="1" vertex="1">
          <mxGeometry x="-3000" y="-899.5" width="120" height="40" as="geometry" />
        </mxCell>
        <mxCell id="Q_odpXwVn9oltR_Ve3df-34" value="" style="endArrow=none;html=1;rounded=0;entryX=0.087;entryY=1.013;entryDx=0;entryDy=0;entryPerimeter=0;" parent="1" target="Q_odpXwVn9oltR_Ve3df-9" edge="1">
          <mxGeometry width="50" height="50" relative="1" as="geometry">
            <mxPoint x="-3960" y="-780" as="sourcePoint" />
            <mxPoint x="-3960" y="-620" as="targetPoint" />
          </mxGeometry>
        </mxCell>
        <mxCell id="Q_odpXwVn9oltR_Ve3df-35" value="" style="endArrow=none;html=1;rounded=0;" parent="1" target="Q_odpXwVn9oltR_Ve3df-15" edge="1">
          <mxGeometry width="50" height="50" relative="1" as="geometry">
            <mxPoint x="-3960" y="-919" as="sourcePoint" />
            <mxPoint x="-3820" y="-669" as="targetPoint" />
          </mxGeometry>
        </mxCell>
        <mxCell id="Q_odpXwVn9oltR_Ve3df-36" value="" style="endArrow=none;html=1;rounded=0;" parent="1" target="Q_odpXwVn9oltR_Ve3df-17" edge="1">
          <mxGeometry width="50" height="50" relative="1" as="geometry">
            <mxPoint x="-3960" y="-849" as="sourcePoint" />
            <mxPoint x="-3910" y="-909" as="targetPoint" />
          </mxGeometry>
        </mxCell>
        <mxCell id="Q_odpXwVn9oltR_Ve3df-37" value="" style="endArrow=none;html=1;rounded=0;" parent="1" target="Q_odpXwVn9oltR_Ve3df-16" edge="1">
          <mxGeometry width="50" height="50" relative="1" as="geometry">
            <mxPoint x="-3960" y="-780" as="sourcePoint" />
            <mxPoint x="-3900" y="-849" as="targetPoint" />
          </mxGeometry>
        </mxCell>
        <mxCell id="Q_odpXwVn9oltR_Ve3df-38" value="" style="endArrow=none;html=1;rounded=0;entryX=0.09;entryY=1.001;entryDx=0;entryDy=0;entryPerimeter=0;" parent="1" target="Q_odpXwVn9oltR_Ve3df-10" edge="1">
          <mxGeometry width="50" height="50" relative="1" as="geometry">
            <mxPoint x="-3820" y="-820" as="sourcePoint" />
            <mxPoint x="-3880" y="-1020" as="targetPoint" />
          </mxGeometry>
        </mxCell>
        <mxCell id="Q_odpXwVn9oltR_Ve3df-39" value="" style="endArrow=none;html=1;rounded=0;" parent="1" target="Q_odpXwVn9oltR_Ve3df-19" edge="1">
          <mxGeometry width="50" height="50" relative="1" as="geometry">
            <mxPoint x="-3820" y="-899" as="sourcePoint" />
            <mxPoint x="-3780" y="-919" as="targetPoint" />
          </mxGeometry>
        </mxCell>
        <mxCell id="Q_odpXwVn9oltR_Ve3df-40" value="" style="endArrow=none;html=1;rounded=0;" parent="1" target="Q_odpXwVn9oltR_Ve3df-18" edge="1">
          <mxGeometry width="50" height="50" relative="1" as="geometry">
            <mxPoint x="-3820" y="-820" as="sourcePoint" />
            <mxPoint x="-3780" y="-829" as="targetPoint" />
          </mxGeometry>
        </mxCell>
        <mxCell id="Q_odpXwVn9oltR_Ve3df-41" value="" style="endArrow=none;html=1;rounded=0;entryX=0.082;entryY=1.009;entryDx=0;entryDy=0;entryPerimeter=0;" parent="1" target="Q_odpXwVn9oltR_Ve3df-11" edge="1">
          <mxGeometry width="50" height="50" relative="1" as="geometry">
            <mxPoint x="-3680" y="-620" as="sourcePoint" />
            <mxPoint x="-3680" y="-710" as="targetPoint" />
          </mxGeometry>
        </mxCell>
        <mxCell id="Q_odpXwVn9oltR_Ve3df-42" value="" style="endArrow=none;html=1;rounded=0;" parent="1" target="Q_odpXwVn9oltR_Ve3df-20" edge="1">
          <mxGeometry width="50" height="50" relative="1" as="geometry">
            <mxPoint x="-3680" y="-919" as="sourcePoint" />
            <mxPoint x="-3640" y="-919" as="targetPoint" />
          </mxGeometry>
        </mxCell>
        <mxCell id="Q_odpXwVn9oltR_Ve3df-43" value="" style="endArrow=none;html=1;rounded=0;" parent="1" target="Q_odpXwVn9oltR_Ve3df-25" edge="1">
          <mxGeometry width="50" height="50" relative="1" as="geometry">
            <mxPoint x="-3680" y="-860" as="sourcePoint" />
            <mxPoint x="-3640" y="-829" as="targetPoint" />
          </mxGeometry>
        </mxCell>
        <mxCell id="Q_odpXwVn9oltR_Ve3df-44" value="" style="endArrow=none;html=1;rounded=0;" parent="1" target="Q_odpXwVn9oltR_Ve3df-24" edge="1">
          <mxGeometry width="50" height="50" relative="1" as="geometry">
            <mxPoint x="-3680" y="-800" as="sourcePoint" />
            <mxPoint x="-3640" y="-739" as="targetPoint" />
          </mxGeometry>
        </mxCell>
        <mxCell id="Q_odpXwVn9oltR_Ve3df-45" value="" style="endArrow=none;html=1;rounded=0;" parent="1" target="Q_odpXwVn9oltR_Ve3df-21" edge="1">
          <mxGeometry width="50" height="50" relative="1" as="geometry">
            <mxPoint x="-3680" y="-740" as="sourcePoint" />
            <mxPoint x="-3630" y="-749" as="targetPoint" />
          </mxGeometry>
        </mxCell>
        <mxCell id="Q_odpXwVn9oltR_Ve3df-46" value="" style="endArrow=none;html=1;rounded=0;" parent="1" target="Q_odpXwVn9oltR_Ve3df-22" edge="1">
          <mxGeometry width="50" height="50" relative="1" as="geometry">
            <mxPoint x="-3680" y="-680" as="sourcePoint" />
            <mxPoint x="-3620" y="-739" as="targetPoint" />
          </mxGeometry>
        </mxCell>
        <mxCell id="Q_odpXwVn9oltR_Ve3df-47" value="" style="endArrow=none;html=1;rounded=0;" parent="1" target="Q_odpXwVn9oltR_Ve3df-23" edge="1">
          <mxGeometry width="50" height="50" relative="1" as="geometry">
            <mxPoint x="-3680" y="-620" as="sourcePoint" />
            <mxPoint x="-3610" y="-729" as="targetPoint" />
          </mxGeometry>
        </mxCell>
        <mxCell id="Q_odpXwVn9oltR_Ve3df-48" value="4. Quản lý khách hàng" style="whiteSpace=wrap;html=1;rounded=0;" parent="1" vertex="1">
          <mxGeometry x="-3550" y="-1000" width="140" height="40" as="geometry" />
        </mxCell>
        <mxCell id="Q_odpXwVn9oltR_Ve3df-49" value="4.1. Thêm thông tin khách hàng" style="whiteSpace=wrap;html=1;rounded=0;" parent="1" vertex="1">
          <mxGeometry x="-3530" y="-939" width="120" height="39" as="geometry" />
        </mxCell>
        <mxCell id="Q_odpXwVn9oltR_Ve3df-50" value="4.4. Tìm hoá đơn của khách hàng" style="whiteSpace=wrap;html=1;rounded=0;" parent="1" vertex="1">
          <mxGeometry x="-3530" y="-759" width="120" height="39" as="geometry" />
        </mxCell>
        <mxCell id="Q_odpXwVn9oltR_Ve3df-51" value="4.5 Tìm khách hàng" style="whiteSpace=wrap;html=1;rounded=0;" parent="1" vertex="1">
          <mxGeometry x="-3530" y="-699" width="120" height="40" as="geometry" />
        </mxCell>
        <mxCell id="Q_odpXwVn9oltR_Ve3df-52" value="4.6. Xem chi tiết hóa đơn" style="whiteSpace=wrap;html=1;rounded=0;" parent="1" vertex="1">
          <mxGeometry x="-3530" y="-639" width="120" height="40" as="geometry" />
        </mxCell>
        <mxCell id="Q_odpXwVn9oltR_Ve3df-53" value="4.3. Xóa thông tin khách hàng" style="whiteSpace=wrap;html=1;rounded=0;" parent="1" vertex="1">
          <mxGeometry x="-3530" y="-819" width="120" height="39" as="geometry" />
        </mxCell>
        <mxCell id="Q_odpXwVn9oltR_Ve3df-54" value="4.2. Sửa thông tin khách hàng" style="whiteSpace=wrap;html=1;rounded=0;" parent="1" vertex="1">
          <mxGeometry x="-3530" y="-879" width="120" height="39" as="geometry" />
        </mxCell>
        <mxCell id="Q_odpXwVn9oltR_Ve3df-55" value="" style="endArrow=none;html=1;rounded=0;entryX=0.068;entryY=1.004;entryDx=0;entryDy=0;entryPerimeter=0;" parent="1" target="Q_odpXwVn9oltR_Ve3df-48" edge="1">
          <mxGeometry width="50" height="50" relative="1" as="geometry">
            <mxPoint x="-3540" y="-620" as="sourcePoint" />
            <mxPoint x="-3480" y="-710" as="targetPoint" />
          </mxGeometry>
        </mxCell>
        <mxCell id="Q_odpXwVn9oltR_Ve3df-56" value="" style="endArrow=none;html=1;rounded=0;" parent="1" target="Q_odpXwVn9oltR_Ve3df-49" edge="1">
          <mxGeometry width="50" height="50" relative="1" as="geometry">
            <mxPoint x="-3540" y="-914" as="sourcePoint" />
            <mxPoint x="-3500" y="-919" as="targetPoint" />
          </mxGeometry>
        </mxCell>
        <mxCell id="Q_odpXwVn9oltR_Ve3df-57" value="" style="endArrow=none;html=1;rounded=0;" parent="1" target="Q_odpXwVn9oltR_Ve3df-54" edge="1">
          <mxGeometry width="50" height="50" relative="1" as="geometry">
            <mxPoint x="-3540" y="-860" as="sourcePoint" />
            <mxPoint x="-3500" y="-829" as="targetPoint" />
          </mxGeometry>
        </mxCell>
        <mxCell id="Q_odpXwVn9oltR_Ve3df-58" value="" style="endArrow=none;html=1;rounded=0;" parent="1" target="Q_odpXwVn9oltR_Ve3df-53" edge="1">
          <mxGeometry width="50" height="50" relative="1" as="geometry">
            <mxPoint x="-3540" y="-800" as="sourcePoint" />
            <mxPoint x="-3500" y="-739" as="targetPoint" />
          </mxGeometry>
        </mxCell>
        <mxCell id="Q_odpXwVn9oltR_Ve3df-59" value="" style="endArrow=none;html=1;rounded=0;" parent="1" target="Q_odpXwVn9oltR_Ve3df-50" edge="1">
          <mxGeometry width="50" height="50" relative="1" as="geometry">
            <mxPoint x="-3540" y="-740" as="sourcePoint" />
            <mxPoint x="-3490" y="-749" as="targetPoint" />
          </mxGeometry>
        </mxCell>
        <mxCell id="Q_odpXwVn9oltR_Ve3df-60" value="" style="endArrow=none;html=1;rounded=0;" parent="1" target="Q_odpXwVn9oltR_Ve3df-51" edge="1">
          <mxGeometry width="50" height="50" relative="1" as="geometry">
            <mxPoint x="-3540" y="-680.4444037543403" as="sourcePoint" />
            <mxPoint x="-3480" y="-739" as="targetPoint" />
          </mxGeometry>
        </mxCell>
        <mxCell id="Q_odpXwVn9oltR_Ve3df-61" value="" style="endArrow=none;html=1;rounded=0;" parent="1" target="Q_odpXwVn9oltR_Ve3df-52" edge="1">
          <mxGeometry width="50" height="50" relative="1" as="geometry">
            <mxPoint x="-3540" y="-620" as="sourcePoint" />
            <mxPoint x="-3470" y="-729" as="targetPoint" />
          </mxGeometry>
        </mxCell>
        <mxCell id="Q_odpXwVn9oltR_Ve3df-62" value="" style="endArrow=none;html=1;rounded=0;entryX=0.08;entryY=0.997;entryDx=0;entryDy=0;entryPerimeter=0;" parent="1" target="Q_odpXwVn9oltR_Ve3df-12" edge="1">
          <mxGeometry width="50" height="50" relative="1" as="geometry">
            <mxPoint x="-3380" y="-630" as="sourcePoint" />
            <mxPoint x="-3280" y="-931.3299999999999" as="targetPoint" />
          </mxGeometry>
        </mxCell>
        <mxCell id="Q_odpXwVn9oltR_Ve3df-63" value="" style="endArrow=none;html=1;rounded=0;" parent="1" target="Q_odpXwVn9oltR_Ve3df-26" edge="1">
          <mxGeometry width="50" height="50" relative="1" as="geometry">
            <mxPoint x="-3380" y="-919" as="sourcePoint" />
            <mxPoint x="-3340" y="-930.33" as="targetPoint" />
          </mxGeometry>
        </mxCell>
        <mxCell id="Q_odpXwVn9oltR_Ve3df-64" value="" style="endArrow=none;html=1;rounded=0;" parent="1" target="Q_odpXwVn9oltR_Ve3df-27" edge="1">
          <mxGeometry width="50" height="50" relative="1" as="geometry">
            <mxPoint x="-3380" y="-844" as="sourcePoint" />
            <mxPoint x="-3340" y="-840.33" as="targetPoint" />
          </mxGeometry>
        </mxCell>
        <mxCell id="Q_odpXwVn9oltR_Ve3df-65" value="" style="endArrow=none;html=1;rounded=0;" parent="1" target="Q_odpXwVn9oltR_Ve3df-29" edge="1">
          <mxGeometry width="50" height="50" relative="1" as="geometry">
            <mxPoint x="-3380" y="-764" as="sourcePoint" />
            <mxPoint x="-3340" y="-750.3299999999999" as="targetPoint" />
          </mxGeometry>
        </mxCell>
        <mxCell id="Q_odpXwVn9oltR_Ve3df-66" value="" style="endArrow=none;html=1;rounded=0;" parent="1" target="Q_odpXwVn9oltR_Ve3df-28" edge="1">
          <mxGeometry width="50" height="50" relative="1" as="geometry">
            <mxPoint x="-3380" y="-679" as="sourcePoint" />
            <mxPoint x="-3330" y="-759" as="targetPoint" />
          </mxGeometry>
        </mxCell>
        <mxCell id="Q_odpXwVn9oltR_Ve3df-67" value="" style="endArrow=none;html=1;rounded=0;entryX=0.084;entryY=1.008;entryDx=0;entryDy=0;entryPerimeter=0;" parent="1" target="Q_odpXwVn9oltR_Ve3df-13" edge="1">
          <mxGeometry width="50" height="50" relative="1" as="geometry">
            <mxPoint x="-3240" y="-640" as="sourcePoint" />
            <mxPoint x="-3080" y="-930" as="targetPoint" />
          </mxGeometry>
        </mxCell>
        <mxCell id="Q_odpXwVn9oltR_Ve3df-68" value="" style="endArrow=none;html=1;rounded=0;" parent="1" edge="1">
          <mxGeometry width="50" height="50" relative="1" as="geometry">
            <mxPoint x="-3260" y="-914.5" as="sourcePoint" />
            <mxPoint x="-3220" y="-914.5" as="targetPoint" />
          </mxGeometry>
        </mxCell>
        <mxCell id="Q_odpXwVn9oltR_Ve3df-69" value="" style="endArrow=none;html=1;rounded=0;" parent="1" edge="1">
          <mxGeometry width="50" height="50" relative="1" as="geometry">
            <mxPoint x="-3260" y="-824.5" as="sourcePoint" />
            <mxPoint x="-3220" y="-824.5" as="targetPoint" />
          </mxGeometry>
        </mxCell>
        <mxCell id="Q_odpXwVn9oltR_Ve3df-70" value="" style="endArrow=none;html=1;rounded=0;" parent="1" target="Q_odpXwVn9oltR_Ve3df-33" edge="1">
          <mxGeometry width="50" height="50" relative="1" as="geometry">
            <mxPoint x="-3040" y="-879.5" as="sourcePoint" />
            <mxPoint x="-3200" y="-734.5" as="targetPoint" />
          </mxGeometry>
        </mxCell>
        <mxCell id="Q_odpXwVn9oltR_Ve3df-71" value="" style="endArrow=none;html=1;rounded=0;" parent="1" edge="1">
          <mxGeometry width="50" height="50" relative="1" as="geometry">
            <mxPoint x="-3260" y="-734.5" as="sourcePoint" />
            <mxPoint x="-3220" y="-734.5" as="targetPoint" />
          </mxGeometry>
        </mxCell>
        <mxCell id="Q_odpXwVn9oltR_Ve3df-72" value="" style="endArrow=none;html=1;rounded=0;entryX=0.063;entryY=0.988;entryDx=0;entryDy=0;entryPerimeter=0;" parent="1" target="Q_odpXwVn9oltR_Ve3df-14" edge="1">
          <mxGeometry width="50" height="50" relative="1" as="geometry">
            <mxPoint x="-3100" y="-750" as="sourcePoint" />
            <mxPoint x="-2880.37" y="-930" as="targetPoint" />
          </mxGeometry>
        </mxCell>
        <mxCell id="Q_odpXwVn9oltR_Ve3df-73" value="Xuất phiếu nhập" style="whiteSpace=wrap;html=1;rounded=0;" parent="1" vertex="1">
          <mxGeometry x="-3000" y="-819.5" width="120" height="40" as="geometry" />
        </mxCell>
        <mxCell id="Q_odpXwVn9oltR_Ve3df-74" value="" style="endArrow=none;html=1;rounded=0;" parent="1" target="Q_odpXwVn9oltR_Ve3df-73" edge="1">
          <mxGeometry width="50" height="50" relative="1" as="geometry">
            <mxPoint x="-3040" y="-799.5" as="sourcePoint" />
            <mxPoint x="-3190" y="-804.5" as="targetPoint" />
          </mxGeometry>
        </mxCell>
      </root>
    </mxGraphModel>
  </diagram>
  <diagram id="EOFpoEzITYBdiXPboAZs" name="DFD Mức 0">
    <mxGraphModel dx="1050" dy="522" grid="1" gridSize="10" guides="1" tooltips="1" connect="1" arrows="1" fold="1" page="1" pageScale="1" pageWidth="827" pageHeight="1169" math="0" shadow="0">
      <root>
        <mxCell id="0" />
        <mxCell id="1" parent="0" />
      </root>
    </mxGraphModel>
  </diagram>
  <diagram id="nmnE8qgTCsU_OP5iOgVU" name="DFD Mức 1">
    <mxGraphModel dx="1050" dy="522" grid="1" gridSize="10" guides="1" tooltips="1" connect="1" arrows="1" fold="1" page="1" pageScale="1" pageWidth="827" pageHeight="1169" math="0" shadow="0">
      <root>
        <mxCell id="0" />
        <mxCell id="1" parent="0" />
      </root>
    </mxGraphModel>
  </diagram>
  <diagram id="rHfka2n6u7_MhTj6lSrY" name="DFD Mức 2">
    <mxGraphModel dx="1050" dy="522" grid="1" gridSize="10" guides="1" tooltips="1" connect="1" arrows="1" fold="1" page="1" pageScale="1" pageWidth="827" pageHeight="1169" math="0" shadow="0">
      <root>
        <mxCell id="0" />
        <mxCell id="1" parent="0" />
      </root>
    </mxGraphModel>
  </diagram>
</mxfile>
